

TITLE: Master_org

001  AX       AA/V  C        00:00:00:00 00:00:32:06 00:00:00:00 00:00:32:06
* FROM CLIP NAME: Szene_1

002  AX       AA/V  C        00:00:00:00 00:00:50:10 00:00:32:06 00:01:22:16
* FROM CLIP NAME: Szene_2

003  BL       V     C        00:00:00:00 00:00:02:00 00:01:22:16 00:01:24:16

004  AX       AA/V  C        00:00:09:04 00:01:27:07 00:01:24:16 00:02:42:19
* FROM CLIP NAME: Szene_6

005  AX       AA/V  C        00:00:00:00 00:00:30:07 00:02:42:19 00:03:13:01
* FROM CLIP NAME: Szene_7

006  BL       V     C        00:00:00:00 00:00:02:01 00:03:13:01 00:03:15:02

007  AX       AA/V  C        00:00:00:00 00:01:58:12 00:03:15:02 00:05:13:14
* FROM CLIP NAME: Szene_10

008  AX       AA/V  C        00:00:00:00 00:00:08:05 00:05:13:14 00:05:21:19
* FROM CLIP NAME: Szene_11

009  BL       V     C        00:00:00:00 00:00:02:01 00:05:21:19 00:05:23:20

010  AX       AA/V  C        00:00:00:00 00:01:36:01 00:05:23:20 00:06:59:21
* FROM CLIP NAME: Szene_15

011  AX       AA/V  C        00:00:00:00 00:01:06:08 00:06:59:21 00:08:06:04
* FROM CLIP NAME: Szene_16

012  AX       AA/V  C        00:00:00:00 00:01:15:02 00:08:06:04 00:09:21:06
* FROM CLIP NAME: Szene_17

013  BL       V     C        00:00:00:00 00:00:02:01 00:09:21:06 00:09:23:07

014  AX       AA/V  C        00:00:00:00 00:00:22:15 00:09:23:07 00:09:45:22
* FROM CLIP NAME: Szene_26

015  AX       AA/V  C        00:00:00:00 00:01:01:16 00:09:45:22 00:10:47:13
* FROM CLIP NAME: Szene_27

016  AX       AA/V  C        00:00:00:00 00:00:48:10 00:10:47:13 00:11:35:23
* FROM CLIP NAME: Szene_28

017  AX       AA/V  C        00:00:00:00 00:03:05:13 00:11:35:23 00:14:41:11
* FROM CLIP NAME: Szene_29

018  AX       AA/V  C        00:00:00:00 00:02:51:04 00:14:41:11 00:17:32:15
* FROM CLIP NAME: Szene_30

019  AX       AA/V  C        00:00:00:00 00:00:22:13 00:17:32:15 00:17:55:03
* FROM CLIP NAME: Szene_31a

020  BL       V     C        00:00:00:00 00:00:05:03 00:17:55:03 00:18:00:06

021  AX       AA/V  C        00:00:00:00 00:00:28:09 00:18:00:06 00:18:28:15
* FROM CLIP NAME: Szene_32

022  AX       AA/V  C        00:00:00:00 00:00:40:08 00:18:28:15 00:19:08:23
* FROM CLIP NAME: Szene_33

023  AX       AA/V  C        00:00:00:00 00:02:02:03 00:19:08:23 00:21:11:01
* FROM CLIP NAME: Szene_34

024  AX       AA/V  C        00:00:00:00 00:01:10:05 00:21:11:01 00:22:21:06
* FROM CLIP NAME: Szene_35

025  AX       AA/V  C        00:00:00:00 00:01:54:24 00:22:21:06 00:24:16:05
* FROM CLIP NAME: Szene_36

026  AX       AA/V  C        00:00:00:00 00:00:03:09 00:24:16:05 00:24:19:14
* FROM CLIP NAME: Szene_37
